<?xml version="1.0" encoding="UTF-8" standalone="no"?>
<svg
   xmlns:dc="http://purl.org/dc/elements/1.1/"
   xmlns:cc="http://creativecommons.org/ns#"
   xmlns:rdf="http://www.w3.org/1999/02/22-rdf-syntax-ns#"
   xmlns:svg="http://www.w3.org/2000/svg"
   xmlns="http://www.w3.org/2000/svg"
   xmlns:sodipodi="http://sodipodi.sourceforge.net/DTD/sodipodi-0.dtd"
   xmlns:inkscape="http://www.inkscape.org/namespaces/inkscape"
   inkscape:version="1.0 (6e3e5246a0, 2020-05-07)"
   sodipodi:docname="magic-lamp.svg"
   id="svg324"
   version="1.1"
   viewBox="0 0 512 512"
   style="height: 512px; width: 512px;">
  <metadata
     id="metadata330">
    <rdf:RDF>
      <cc:Work
         rdf:about="">
        <dc:format>image/svg+xml</dc:format>
        <dc:type
           rdf:resource="http://purl.org/dc/dcmitype/StillImage" />
      </cc:Work>
    </rdf:RDF>
  </metadata>
  <defs
     id="defs328" />
  <sodipodi:namedview
     inkscape:current-layer="svg324"
     inkscape:window-maximized="1"
     inkscape:window-y="0"
     inkscape:window-x="0"
     inkscape:cy="256"
     inkscape:cx="256"
     inkscape:zoom="1.7519531"
     showgrid="false"
     id="namedview326"
     inkscape:window-height="1163"
     inkscape:window-width="1920"
     inkscape:pageshadow="2"
     inkscape:pageopacity="0"
     guidetolerance="10"
     gridtolerance="10"
     objecttolerance="10"
     borderopacity="1"
     bordercolor="#666666"
     pagecolor="#ffffff" />
  <path
     id="path318"
     fill-opacity="0"
     fill="#d0021b"
     d="M0 0h512v512H0z" />
  <g
     id="g322"
     transform="translate(0,0)"
     style="touch-action:none;fill:#d4aa00"
     class="">
    <path
       style="fill:#d4aa00"
       id="path320"
       fill-opacity="1"
       fill="#fff"
       d="M203.72 87.938c-2.082.017-4.18.31-6.282.874-13.45 3.608-21.412 17.53-17.782 31.094 1.384 5.172 4.235 9.52 8 12.75-31.85 15.446-53.498 45.172-59.28 78.72l-22.532 7.593c-11.235-2.877-21.416-4.2-30.53-4.095-14.696.167-26.65 4.02-35.908 10.97-18.518 13.896-23.316 38.02-19.53 60.655 3.784 22.636 15.81 45.127 34.343 59.344 18.532 14.216 44.715 18.96 71.03 4.875 4.43-2.373 8.776-4.81 12.813-6.97 2.993 10.772 14.018 17.16 24.75 14.28 10.253-2.75 16.547-12.963 14.656-23.31 16.984 10.05 34.495 15.674 52.186 17.405-14.094 20.893-32.316 39.57-53.97 54.78 27.754 27.726 224.764-24.853 229.626-61.592-26.89-2.484-52.525-9.935-75.562-21.563 67.995-43.983 128.655-133.27 160.656-234.563l-42.47 14.344c-44.11 67.313-122.214 103.81-167.155 28-16.198-7.454-34.36-10.948-53-9.593 1.656-4.69 1.95-9.913.564-15.093-3.063-11.443-13.392-18.998-24.625-18.906zM76.062 233.53c5.11-.027 10.865.51 17.312 1.75 18.656 36.728 39.31 63.938 61.188 82.845-.767.113-1.546.263-2.313.47-.146.038-.293.08-.438.124-2.846.324-5.588 1.044-8.218 1.936-9.64 3.27-18.73 9.084-27.156 13.594-20.655 11.056-36.95 7.41-50.844-3.25-13.895-10.66-24.256-29.5-27.28-47.594-3.027-18.094.948-34.097 12.31-42.625 5.683-4.263 13.943-7.186 25.438-7.25z" />
  </g>
</svg>
