<?xml version="1.0" encoding="UTF-8" standalone="no"?>
<svg
   xmlns:dc="http://purl.org/dc/elements/1.1/"
   xmlns:cc="http://creativecommons.org/ns#"
   xmlns:rdf="http://www.w3.org/1999/02/22-rdf-syntax-ns#"
   xmlns:svg="http://www.w3.org/2000/svg"
   xmlns="http://www.w3.org/2000/svg"
   xmlns:sodipodi="http://sodipodi.sourceforge.net/DTD/sodipodi-0.dtd"
   xmlns:inkscape="http://www.inkscape.org/namespaces/inkscape"
   inkscape:version="1.0 (6e3e5246a0, 2020-05-07)"
   sodipodi:docname="card-random.svg"
   id="svg48"
   version="1.1"
   viewBox="0 0 512 512"
   style="height: 512px; width: 512px;">
  <metadata
     id="metadata54">
    <rdf:RDF>
      <cc:Work
         rdf:about="">
        <dc:format>image/svg+xml</dc:format>
        <dc:type
           rdf:resource="http://purl.org/dc/dcmitype/StillImage" />
      </cc:Work>
    </rdf:RDF>
  </metadata>
  <defs
     id="defs52" />
  <sodipodi:namedview
     inkscape:current-layer="svg48"
     inkscape:window-maximized="1"
     inkscape:window-y="0"
     inkscape:window-x="0"
     inkscape:cy="255.47755"
     inkscape:cx="256"
     inkscape:zoom="1.9140625"
     showgrid="false"
     id="namedview50"
     inkscape:window-height="1200"
     inkscape:window-width="1920"
     inkscape:pageshadow="2"
     inkscape:pageopacity="0"
     guidetolerance="10"
     gridtolerance="10"
     objecttolerance="10"
     borderopacity="1"
     bordercolor="#666666"
     pagecolor="#ffffff" />
  <path
     id="path42"
     fill-opacity="0"
     fill="#d0021b"
     d="M0 0h512v512H0z" />
  <g
     style="touch-action: none;"
     id="g46"
     transform="translate(0,0)"
     class="">
    <path
       id="path44"
       fill-opacity="1"
       fill="#fff"
       d="M386.688 487.75l-119.236-55.423c-7.898-3.673-11.334-13.065-7.66-20.976l84.374-181.523c3.667-7.904 13.07-11.334 20.963-7.667l119.24 55.434c7.9 3.673 11.33 13.065 7.656 20.964l-84.37 181.524c-3.678 7.904-13.076 11.334-20.968 7.667zM98.95 467.945L19.79 284.09c-3.448-8.007.255-17.302 8.25-20.744l39.196-16.872 48.975 184.044c4.694 17.588 22.755 28.078 40.36 23.39l39.032-10.386-75.907 32.686c-8.007 3.443-17.296-.255-20.744-8.262zm33.89-41.86L81.362 232.638c-2.24-8.42 2.78-17.078 11.19-19.312l34.033-9.052-4.098 30.465c-2.422 18.036 10.224 34.652 28.285 37.087l79.828 10.758-32.497 109.467c-3.345 11.28-.37 22.948 6.866 31.18l-52.82 14.05c-8.42 2.24-17.07-2.77-19.31-11.196zm108.428-4.76l-16.02-4.76c-8.36-2.49-13.12-11.267-10.644-19.627l56.97-191.9c2.484-8.36 11.28-13.12 19.622-10.65l49.073 14.583.008-.005.12.044-.133-.034c-4.93 3.254-9.04 7.868-11.705 13.605l-84.38 181.53c-2.587 5.586-3.486 11.517-2.915 17.218zm-5.707-155.43l-82.486-11.117c-8.633-1.166-14.704-9.12-13.538-17.758l26.73-198.39c1.16-8.633 9.125-14.698 17.74-13.538l130.327 17.563c8.627 1.166 14.692 9.125 13.532 17.752L311.42 182.46l-15.33-4.552c-17.467-5.197-35.826 4.784-41.004 22.232l-19.525 65.755zm-5.19-31.46c4.67-3.055 7.474-7.438 8.42-13.145.936-5.633-.357-10.617-3.866-14.945-3.51-4.414-8.39-7.14-14.656-8.178-6.344-1.057-11.93-.073-16.75 2.956-4.826 3.03-7.692 7.316-8.615 12.87-.898 5.386.425 10.42 3.97 15.082 3.565 4.504 8.525 7.285 14.863 8.34 6.35 1.057 11.893.062 16.634-2.98zm25.978-81.243c4.693-2.726 8.888-5.434 12.598-8.117 3.703-2.684 6.915-5.586 9.635-8.725 2.72-3.13 4.967-6.573 6.733-10.307 1.76-3.74 3.048-8.032 3.85-12.865 1.262-7.62 1.02-14.358-.735-20.234-1.75-5.87-4.693-10.94-8.833-15.22-4.135-4.27-9.24-7.753-15.318-10.43-6.07-2.684-12.804-4.633-20.174-5.86-7.692-1.28-15.3-1.602-22.815-.977-7.516.614-14.63 2.247-21.346 4.88l-5.95 35.802c6.813-4.25 13.77-7.104 20.855-8.567 7.09-1.475 13.726-1.7 19.913-.668 21.467 4.092 19.44 24.898 8.76 34.03-5.652 4.473-11.334 8.802-15.942 11.345-10.48 5.914-27.69 23.125-22.542 45.145l31.284 5.202c-7.11-17.757 11.663-29.462 20.028-34.434z" />
  </g>
  <path
     id="path56"
     d="m 108.21355,476.2549 c -2.39008,-0.88271 -5.19666,-3.06082 -7.16451,-5.5602 -1.659757,-2.10807 -81.146146,-186.62905 -81.946613,-190.23218 -1.385523,-6.23663 2.356949,-13.42788 8.587369,-16.50082 4.948682,-2.44077 39.031975,-16.90796 39.270818,-16.66911 0.144652,0.14465 11.399507,42.11469 25.010792,93.26676 20.341664,76.44529 25.089904,93.68433 26.669344,96.82629 2.69814,5.36734 8.97697,11.58566 14.32252,14.18446 5.91856,2.87738 9.59469,3.63052 16.41744,3.36347 5.23228,-0.2048 7.30641,-0.63761 21.65075,-4.51784 8.72527,-2.36025 16.10891,-4.20976 16.40808,-4.11003 0.29918,0.0997 -15.1858,6.96976 -34.41105,15.26675 -34.19411,14.75704 -35.04032,15.08917 -38.87339,15.25753 -2.50971,0.11025 -4.6457,-0.0965 -5.94155,-0.57508 z"
     style="fill:#008000;stroke-width:0.522449" />
  <path
     id="path58"
     d="m 142.56867,436.44491 c -2.75643,-0.97757 -6.12812,-3.86824 -7.74948,-6.64388 -1.76608,-3.0234 -53.578374,-197.72362 -53.578374,-201.33681 0,-5.08452 3.049691,-10.41813 7.545823,-13.19689 1.655426,-1.02311 36.778351,-10.72547 37.221691,-10.28213 0.11205,0.11205 -0.74582,7.18985 -1.90638,15.72845 -2.38687,17.56092 -2.52728,20.94934 -1.0994,26.53227 3.09207,12.08987 12.77598,21.65205 24.48713,24.17934 1.92394,0.41518 21.24828,3.13476 42.94297,6.04349 21.6947,2.90872 39.50971,5.34769 39.58891,5.41992 0.0792,0.0722 -6.34332,21.97019 -14.27227,48.66214 -20.74246,69.82721 -19.04859,63.63664 -19.03953,69.58331 0.004,2.78848 0.35437,6.54019 0.77805,8.33713 0.87311,3.70315 3.69195,9.61007 5.75737,12.06468 0.76256,0.90626 1.25144,1.64774 1.0864,1.64774 -0.16505,0 -12.24543,3.17388 -26.84529,7.05306 -28.16402,7.48319 -30.26783,7.85724 -34.91762,6.20818 z"
     style="fill:#008000;stroke-width:0.522449" />
  <path
     id="path60"
     d="m 192.26122,259.8672 c -22.12571,-3.00137 -41.28653,-5.83578 -42.57959,-6.29869 -3.24537,-1.16181 -7.91721,-5.96374 -9.05718,-9.30936 -0.47814,-1.40328 -0.86935,-3.51319 -0.86935,-4.68869 0,-2.56597 26.39504,-199.057434 27.21428,-202.590105 1.34667,-5.806997 6.37324,-10.368226 12.82475,-11.637481 1.58197,-0.311233 132.55156,17.00115 136.63093,18.060734 2.8696,0.745358 6.69218,3.572099 8.58877,6.351274 3.52268,5.161954 3.84988,0.92158 -5.36588,69.540468 -4.5476,33.8606 -8.41706,61.80691 -8.5988,62.10292 -0.21066,0.3431 -3.28627,-0.33696 -8.48494,-1.87614 -10.14625,-3.00402 -14.31756,-3.63497 -19.62868,-2.96901 -8.11848,1.01797 -13.67994,3.76331 -19.64544,9.69768 -2.57786,2.56441 -4.8397,5.40107 -5.84793,7.33411 -1.0291,1.97306 -5.44523,15.94697 -11.80522,37.3551 l -10.16106,34.20285 -1.49304,0.0907 c -0.82117,0.0499 -19.5959,-2.36498 -41.72162,-5.36635 z m 30.3367,-22.20164 c 8.98291,-1.65509 14.80853,-7.52914 16.41213,-16.54856 1.95125,-10.97484 -6.06142,-20.97472 -18.54903,-23.14934 -6.70414,-1.16748 -13.05806,0.10949 -18.22152,3.66204 -8.44064,5.80731 -10.24181,18.86411 -3.77237,27.34612 5.19976,6.81734 15.04698,10.36342 24.13079,8.68974 z m 13.38004,-52.3118 c -1.11897,-4.3548 -1.20879,-5.64366 -0.60104,-8.62493 0.338,-1.658 1.35001,-4.42516 2.24891,-6.14924 2.17638,-4.17426 8.84834,-10.72608 14.63079,-14.36735 14.22165,-8.9555 18.91031,-12.25885 23.07544,-16.25754 7.20083,-6.91308 11.00406,-13.50984 13.41148,-23.26242 1.51743,-6.14716 1.66757,-17.572366 0.29766,-22.651464 -4.45812,-16.529047 -18.33743,-27.288299 -41.60855,-32.254984 -6.01374,-1.283494 -7.60127,-1.40677 -18.33877,-1.424053 -9.35655,-0.01506 -12.66122,0.172154 -16.19592,0.917522 -3.94282,0.83143 -12.44411,3.336128 -13.01577,3.834778 -0.22651,0.197577 -6.26959,35.901601 -6.10781,36.086451 0.0513,0.0587 2.67065,-1.18568 5.8207,-2.765186 9.92366,-4.97594 20.581,-7.403186 29.81293,-6.789988 10.22153,0.678928 16.66237,4.118878 20.1366,10.754644 1.02969,1.96671 1.22983,3.11965 1.22434,7.05306 -0.006,4.17255 -0.19044,5.09171 -1.63955,8.16242 -2.77976,5.8904 -7.65026,10.28828 -20.99056,18.95366 -10.13934,6.58614 -15.92011,12.71452 -20.42947,21.65791 -3.16286,6.27289 -4.41828,14.49108 -3.37567,22.09774 l 0.31738,2.31552 15.74793,2.62796 c 8.66136,1.44538 15.83915,2.55887 15.95063,2.47442 0.11149,-0.0845 -0.0558,-1.15947 -0.37168,-2.38893 z"
     style="fill:#008000;stroke-width:0.522449" />
  <path
     id="path62"
     d="m 236.66939,419.66271 c -14.35625,-4.30878 -14.15888,-4.22994 -17.01119,-6.79442 -1.58645,-1.42635 -3.25412,-3.56762 -3.96131,-5.08627 -2.58508,-5.55131 -4.14144,0.4553 27.54213,-106.29605 15.82554,-53.32096 29.27739,-97.96513 29.89301,-99.20928 1.38161,-2.7922 4.42893,-5.60571 7.62035,-7.03566 4.72519,-2.11718 6.76999,-1.74521 32.19456,5.85644 12.64326,3.78019 23.71054,7.10471 24.59394,7.38783 l 1.60619,0.51475 -4.22893,4.29998 c -3.30608,3.36162 -4.69754,5.26906 -6.37632,8.74079 -6.26364,12.95329 -85.11106,183.03253 -85.98217,185.46938 -0.60127,1.68199 -1.16889,5.05732 -1.36893,8.1402 l -0.34174,5.26674 z"
     style="fill:#008000;stroke-width:0.522449" />
  <path
     id="path64"
     d="m 388.70204,488.09446 c -1.43673,-0.52101 -29.64898,-13.51402 -62.69388,-28.87335 -47.83632,-22.23442 -60.53199,-28.33828 -62.29134,-29.94863 -4.88877,-4.47474 -6.28538,-11.01846 -3.70123,-17.3418 0.70001,-1.71289 20.15359,-43.71895 43.23019,-93.34679 27.74641,-59.6706 42.53625,-90.90863 43.66633,-92.22888 3.76774,-4.40175 10.5228,-6.40202 15.76835,-4.66923 1.38126,0.45628 29.54811,13.39367 62.59301,28.74977 49.87323,23.17628 60.51722,28.30427 62.6453,30.18082 5.05946,4.46146 6.50972,11.0132 3.8651,17.46112 -0.70254,1.71289 -20.16618,43.73069 -43.25253,93.37289 -28.50182,61.28698 -42.5391,90.91735 -43.73202,92.31101 -3.69634,4.31834 -10.83725,6.24053 -16.09728,4.33307 z"
     style="fill:#008000;stroke-width:0.522449" />
</svg>
