<?xml version="1.0" encoding="UTF-8" standalone="no"?>
<svg
   xmlns:dc="http://purl.org/dc/elements/1.1/"
   xmlns:cc="http://creativecommons.org/ns#"
   xmlns:rdf="http://www.w3.org/1999/02/22-rdf-syntax-ns#"
   xmlns:svg="http://www.w3.org/2000/svg"
   xmlns="http://www.w3.org/2000/svg"
   xmlns:sodipodi="http://sodipodi.sourceforge.net/DTD/sodipodi-0.dtd"
   xmlns:inkscape="http://www.inkscape.org/namespaces/inkscape"
   inkscape:version="1.0 (6e3e5246a0, 2020-05-07)"
   sodipodi:docname="dead-eye.svg"
   id="svg174"
   version="1.1"
   viewBox="0 0 512 512"
   style="height: 512px; width: 512px;">
  <metadata
     id="metadata180">
    <rdf:RDF>
      <cc:Work
         rdf:about="">
        <dc:format>image/svg+xml</dc:format>
        <dc:type
           rdf:resource="http://purl.org/dc/dcmitype/StillImage" />
        <dc:title></dc:title>
      </cc:Work>
    </rdf:RDF>
  </metadata>
  <defs
     id="defs178" />
  <sodipodi:namedview
     inkscape:current-layer="svg174"
     inkscape:window-maximized="1"
     inkscape:window-y="0"
     inkscape:window-x="0"
     inkscape:cy="255.42921"
     inkscape:cx="256"
     inkscape:zoom="1.7519531"
     showgrid="false"
     id="namedview176"
     inkscape:window-height="1163"
     inkscape:window-width="1920"
     inkscape:pageshadow="2"
     inkscape:pageopacity="0"
     guidetolerance="10"
     gridtolerance="10"
     objecttolerance="10"
     borderopacity="1"
     bordercolor="#666666"
     pagecolor="#ffffff" />
  <path
     id="path168"
     fill-opacity="0"
     fill="#d0021b"
     d="M0 0h512v512H0z" />
  <g
     id="g172"
     transform="translate(0,0)"
     style="touch-action:none;fill:#ffe680"
     class="">
    <path
       style="fill:#ffe680"
       id="path170"
       fill-opacity="1"
       fill="#fff"
       d="M260.352 8.924L238.037 59.98c-42.626 4.47-81.168 22.782-111.04 50.36l-16.64-16.64-13.214 13.216 16.744 16.744c-26.084 29.167-43.485 66.252-48.117 107.174L17.826 251.79l47.717 20.853c4.285 42.03 22.02 80.115 48.836 109.87L97.144 399.75l13.214 13.215 17.18-17.18c30.096 27.574 68.902 45.784 111.78 49.992l21.034 48.125 21.224-48.558c40.46-4.83 77.114-22.153 106.002-47.988l15.61 15.61 13.214-13.216-15.504-15.504c27.326-29.6 45.554-67.712 50.235-109.875l51.666-22.583-51.907-22.687c-5.02-41.053-22.904-78.167-49.49-107.184l15-15L403.19 93.7l-15.055 15.056c-28.666-25.833-65.062-43.238-105.266-48.31L260.35 8.923zM238.9 78.676l21.452 49.078 21.26-48.64c35.623 4.698 67.85 20.064 93.368 42.796l-18.664 18.664c4.716 4.08 9.17 8.457 13.342 13.088l18.606-18.605c23.548 25.954 39.397 59.022 43.996 95.625l-48.287 21.105 48.52 21.207c-4.306 37.634-20.492 71.617-44.733 98.11l-17.45-17.452c-4.145 4.66-8.575 9.057-13.263 13.168l17.38 17.38c-25.155 22.216-56.75 37.313-91.66 42.152l-22.413-51.282-22.618 51.746c-37.173-4.36-70.762-20.32-97.054-44.175l17.172-17.17c-4.632-4.175-9.005-8.63-13.086-13.345l-17.235 17.234c-23.037-25.86-38.51-58.61-42.978-94.8l52.1-22.77-51.852-22.663c4.74-35.168 19.882-67 42.238-92.313l18.374 18.374c4.112-4.69 8.51-9.116 13.17-13.26l-18.45-18.45c26.647-24.38 60.872-40.61 98.766-44.802zm22.555 69.2c-58.85 0-106.355 47.504-106.355 106.353 0 58.847 47.506 106.354 106.355 106.354 58.85 0 106.356-47.507 106.356-106.355 0-58.85-47.506-106.355-106.355-106.355zm-1.596 41.235c6.653 0 13.077 1.015 19.13 2.89-9.224 1.827-16.944 7.813-21.138 15.924-24.378 1.245-43.942 21.578-43.942 46.25 0 25.466 20.844 46.312 46.31 46.312 25.467 0 46.313-20.846 46.313-46.312 0-3.337-.365-6.59-1.045-9.733 6.114-5.575 9.95-13.606 9.95-22.534 0-.49-.015-.977-.038-1.46 5.98 9.822 9.43 21.34 9.43 33.634 0 35.772-29.2 64.97-64.97 64.97-35.772 0-64.97-29.198-64.97-64.97s29.198-64.97 64.97-64.97zm-4.964 37.95c2.45 14.385 14.968 25.34 30.05 25.34.953 0 1.896-.05 2.827-.136.043.63.07 1.267.07 1.91 0 15.366-12.256 27.623-27.622 27.623s-27.62-12.257-27.62-27.623c0-13.542 9.52-24.663 22.296-27.113z" />
  </g>
  <path
     id="path182"
     d="m 247.15273,359.31043 c -35.55149,-4.86079 -66.38407,-27.48899 -81.65936,-59.93027 -15.79129,-33.53713 -12.84346,-73.1498 7.73067,-103.88406 15.86622,-23.70145 39.85215,-39.72903 67.96662,-45.41582 9.70779,-1.96362 27.13313,-2.21856 37.03629,-0.54185 34.36914,5.81905 62.60229,26.49576 77.94632,57.08444 32.67311,65.13461 -8.56479,143.08092 -80.78187,152.69085 -7.58099,1.00881 -20.84756,1.00726 -28.23867,-0.003 z m 24.04118,-41.08029 c 27.16843,-4.78375 48.59391,-26.56764 53.06598,-53.95366 0.96379,-5.90212 0.6908,-17.23706 -0.55676,-23.11706 -1.33942,-6.31294 -4.03787,-13.80186 -6.47863,-17.97993 l -1.83395,-3.13936 -0.37872,4.07998 c -0.62209,6.70198 -3.35557,13.2049 -7.39074,17.58255 l -2.25392,2.44521 0.52549,5.07926 c 2.17357,21.00898 -10.26049,40.92368 -30.05166,48.13149 -20.38585,7.42439 -43.0722,-0.47732 -54.63533,-19.02959 -9.85908,-15.81824 -9.19626,-35.50903 1.71365,-50.90881 4.48352,-6.32865 11.67243,-12.18315 18.90121,-15.39275 3.7514,-1.66563 11.5431,-3.67851 14.26266,-3.68456 1.51496,-0.003 2.06813,-0.42772 3.5396,-2.71526 3.66384,-5.69579 9.45762,-10.18018 16.00706,-12.38948 l 3.72661,-1.25709 -1.97477,-0.68873 c -1.08613,-0.3788 -4.28648,-1.06381 -7.1119,-1.52225 -28.16797,-4.57036 -56.23128,9.88454 -68.74088,35.40716 -9.05302,18.47035 -9.18158,38.66014 -0.36346,57.07915 7.39329,15.44286 20.79716,27.47776 37.14001,33.34681 9.23708,3.31722 22.81067,4.4014 32.88845,2.62692 z m -3.35885,-37.31818 c 7.47663,-2.0732 13.61284,-7.09157 17.08733,-13.97452 1.74037,-3.44764 3.29962,-9.46037 3.31742,-12.79251 0.01,-1.83256 -0.023,-1.85519 -2.70135,-1.86498 -13.33399,-0.0488 -24.98376,-8.48386 -29.24099,-21.17216 l -1.46516,-4.36681 -3.24178,1.00302 c -12.86474,3.98041 -21.10561,17.52848 -18.80889,30.92195 1.85708,10.82964 9.77828,19.61036 20.23001,22.42514 4.23301,1.14 10.33201,1.0663 14.82341,-0.17913 z"
     style="fill:#800080;stroke-width:0.570792" />
</svg>
